<svg width="177" height="244" viewBox="0 0 177 244" fill="none" xmlns="http://www.w3.org/2000/svg">
<path d="M62.5601 183.5H108.336C110.23 183.5 111.885 184.204 113.324 185.642C114.762 187.079 115.465 188.733 115.465 190.625V236.375C115.465 238.267 114.762 239.921 113.324 241.358C111.885 242.796 110.23 243.5 108.336 243.5H62.5601C60.6669 243.5 59.012 242.796 57.5737 241.358C56.1354 239.921 55.4312 238.267 55.4312 236.375V190.625C55.4312 188.733 56.1354 187.079 57.5737 185.642C59.012 184.204 60.6669 183.5 62.5601 183.5ZM89.644 0.5C99.7505 0.5 109.927 2.45637 120.174 6.37598C130.428 10.2979 139.664 15.5474 147.887 22.1221C156.098 28.6874 162.795 36.7364 167.978 46.2744C173.153 55.7986 175.737 65.7885 175.737 76.25C175.737 83.0641 174.759 89.4287 172.806 95.3467C170.844 101.293 168.635 106.11 166.188 109.811C163.742 113.509 160.281 117.255 155.792 121.046C151.285 124.853 147.652 127.598 144.886 129.294C142.794 130.577 140.093 132.165 136.782 134.058L133.267 136.052C127.979 139.017 123.567 143.205 120.03 148.604C116.524 153.956 114.703 158.318 114.703 161.65C114.703 163.683 113.988 165.643 112.519 167.539C111.064 169.417 109.419 170.3 107.574 170.3H61.7974C60.1405 170.3 58.6563 169.294 57.3687 167.026C56.0711 164.741 55.4312 162.443 55.4312 160.125V151.547C55.4312 141.143 59.5038 131.312 67.7036 122.045C75.6713 113.04 84.3997 106.332 93.8872 101.908L94.8081 101.487L94.811 101.486C102.339 98.0432 107.756 94.4478 111.003 90.6826C114.277 86.8871 115.893 81.9334 115.893 75.8691C115.893 70.3133 112.805 65.4752 106.808 61.3506C100.805 57.222 93.8699 55.1622 86.021 55.1621C77.9423 55.1621 71.1482 56.908 65.6685 60.4297L65.1421 60.7754L65.1313 60.7832C60.6167 64.0061 53.7738 71.3672 44.6226 82.7998C43.0495 84.7334 41.2144 85.6621 39.1001 85.6621C37.694 85.6621 36.2006 85.1956 34.6118 84.2217L3.35596 60.4131H3.35693C1.79567 59.2128 0.883792 57.7329 0.588379 55.9619C0.309043 54.2868 0.57787 52.7253 1.39893 51.2598L1.56982 50.9688L1.57275 50.9639C21.8294 17.3064 51.1689 0.500133 89.644 0.5Z" fill="#E4E4E4" stroke="black"/>
</svg>
