<svg width="177" height="177" viewBox="0 0 177 177" fill="none" xmlns="http://www.w3.org/2000/svg">
<path d="M116.474 138.281V171.469C116.474 172.944 115.708 174.234 114.175 175.341C112.643 176.447 110.855 177 108.812 177H62.8429C60.7999 177 59.0122 176.447 57.4799 175.341C55.9475 174.234 55.1814 172.944 55.1814 171.469V138.281C55.1814 136.806 55.9475 135.516 57.4799 134.409C59.0122 133.303 60.7999 132.75 62.8429 132.75H108.812C110.855 132.75 112.643 133.303 114.175 134.409C115.708 135.516 116.474 136.806 116.474 138.281ZM177 55.3125C177 60.2906 176.01 64.9461 174.031 69.2789C172.052 73.6117 169.817 77.1379 167.327 79.8574C164.837 82.577 161.326 85.3195 156.793 88.0852C152.26 90.8508 148.588 92.8559 145.779 94.1004C142.97 95.3449 139.075 96.9813 134.095 99.0094C128.86 101.13 124.486 104.126 120.975 107.998C117.463 111.87 115.708 114.958 115.708 117.263C115.708 118.83 114.941 120.328 113.409 121.757C111.877 123.186 110.089 123.9 108.046 123.9H62.0768C60.1614 123.9 58.5333 123.047 57.1925 121.342C55.8518 119.636 55.1814 117.908 55.1814 116.156V109.934C55.1814 102.282 59.3314 95.0684 67.6314 88.2926C75.9314 81.5168 85.0614 76.5156 95.0214 73.2891C102.555 70.8 107.918 68.2188 111.111 65.5453C114.303 62.8719 115.899 59.3688 115.899 55.0359C115.899 51.1641 112.93 47.7531 106.993 44.8031C101.055 41.8531 94.1914 40.3781 86.4022 40.3781C78.1022 40.3781 71.2068 41.7148 65.716 44.3883C61.2468 46.693 54.4152 51.9938 45.2214 60.2906C43.5614 61.7656 41.5821 62.5031 39.2837 62.5031C37.7514 62.5031 36.1552 62.1344 34.4952 61.3969L3.08286 44.1117C1.42286 43.1898 0.433242 42.0375 0.114011 40.6547C-0.20522 39.2719 0.145934 37.9813 1.16747 36.7828C21.5983 12.2609 51.2229 0 90.0414 0C100.257 0 110.536 1.42891 120.879 4.28672C131.222 7.14453 140.544 10.9703 148.844 15.7641C157.144 20.5578 163.912 26.4348 169.147 33.3949C174.382 40.3551 177 47.6609 177 55.3125Z" fill="#E4E4E4"/>
</svg>
