<svg width="46" height="46" viewBox="0 0 46 46" fill="none" xmlns="http://www.w3.org/2000/svg">
<g clip-path="url(#clip0_13_2406)">
<path d="M46 3.83333V17.25C46 17.7691 45.8103 18.2183 45.431 18.5977C45.0516 18.977 44.6024 19.1667 44.0833 19.1667H30.6667C29.8281 19.1667 29.2391 18.7674 28.8997 17.9688C28.5603 17.1901 28.7001 16.5013 29.319 15.9023L33.4518 11.7695C30.497 9.03429 27.013 7.66667 23 7.66667C20.9236 7.66667 18.9421 8.07096 17.0553 8.87956C15.1686 9.68815 13.5365 10.7812 12.1589 12.1589C10.7812 13.5365 9.68815 15.1686 8.87956 17.0553C8.07096 18.9421 7.66667 20.9236 7.66667 23C7.66667 25.0764 8.07096 27.0579 8.87956 28.9447C9.68815 30.8314 10.7812 32.4635 12.1589 33.8411C13.5365 35.2188 15.1686 36.3118 17.0553 37.1204C18.9421 37.929 20.9236 38.3333 23 38.3333C25.3759 38.3333 27.622 37.8142 29.7383 36.776C31.8546 35.7378 33.6415 34.2704 35.099 32.3737C35.2387 32.174 35.4683 32.0543 35.7878 32.0143C36.0872 32.0143 36.3368 32.1042 36.5365 32.2839L40.6393 36.4167C40.819 36.5764 40.9138 36.781 40.9238 37.0306C40.9338 37.2802 40.8589 37.5048 40.6992 37.7044C38.523 40.3398 35.8876 42.3813 32.793 43.8288C29.6984 45.2763 26.434 46 23 46C19.8854 46 16.9106 45.3911 14.0755 44.1732C11.2405 42.9553 8.7947 41.3181 6.73828 39.2617C4.68186 37.2053 3.0447 34.7595 1.82682 31.9245C0.608941 29.0894 0 26.1146 0 23C0 19.8854 0.608941 16.9106 1.82682 14.0755C3.0447 11.2405 4.68186 8.7947 6.73828 6.73828C8.7947 4.68186 11.2405 3.0447 14.0755 1.82682C16.9106 0.608941 19.8854 0 23 0C25.9349 0 28.775 0.554036 31.5202 1.66211C34.2654 2.77018 36.7062 4.33247 38.8424 6.34896L42.7357 2.48568C43.3147 1.86675 44.0135 1.727 44.832 2.06641C45.6107 2.40582 46 2.99479 46 3.83333Z" fill="#2B3485"/>
</g>
<defs>
<clipPath id="clip0_13_2406">
<rect width="46" height="46" fill="white"/>
</clipPath>
</defs>
</svg>
