<svg width="60" height="60" viewBox="0 0 60 60" fill="none" xmlns="http://www.w3.org/2000/svg">
<g clip-path="url(#clip0_48_838)">
<path d="M60 20V37.5C60 38.1771 59.7526 38.763 59.2578 39.2578C58.763 39.7526 58.1771 40 57.5 40H40C38.9063 40 38.138 39.4792 37.6953 38.4375C37.2526 37.4219 37.4349 36.5234 38.2422 35.7422L43.6328 30.3516C39.7787 26.7839 35.2344 25 30 25C27.2917 25 24.707 25.5273 22.2461 26.582C19.7852 27.6367 17.6562 29.0625 15.8594 30.8594C14.0625 32.6562 12.6367 34.7852 11.582 37.2461C10.6999 39.3045 10.8123 41.5733 10.2636 44.0034C10.1211 44.6344 9.63661 45.1293 9.01181 45.2968C5.64151 46.2003 2.8985 45.8278 1.35742 45.4412C0.527976 45.2331 0.0574256 44.4315 0.163631 43.583C0.470824 41.1287 1.21055 36.0882 2.38281 33.3594C3.97135 29.6615 6.10677 26.4714 8.78906 23.7891C11.4714 21.1068 14.6615 18.9714 18.3594 17.3828C22.0573 15.7943 25.9375 15 30 15C33.8281 15 37.5326 15.7227 41.1133 17.168C44.694 18.6133 47.8776 20.651 50.6641 23.2812L55.7422 18.2422C56.4974 17.4349 57.4089 17.2526 58.4766 17.6953C59.4922 18.138 60 18.9062 60 20Z" fill="#2B3485"/>
</g>
<defs>
<clipPath id="clip0_48_838">
<rect width="60" height="60" fill="white"/>
</clipPath>
</defs>
</svg>
