<svg width="54" height="47" viewBox="0 0 54 47" fill="none" xmlns="http://www.w3.org/2000/svg">
<path d="M49.2804 15.9497C50.3223 15.9497 51.2119 16.3243 51.9491 17.0736C52.6864 17.823 53.055 18.7271 53.055 19.7861C53.055 20.8452 52.6864 21.7493 51.9491 22.4987C51.2119 23.248 50.3223 23.6226 49.2804 23.6226V35.1321C49.2804 36.1711 48.9069 37.0703 48.1598 37.8296C47.4128 38.5889 46.5281 38.9685 45.5058 38.9685C37.3079 32.0349 29.3263 28.2384 21.5609 27.579C20.4206 27.9586 19.5261 28.618 18.8774 29.5572C18.2286 30.4963 17.9239 31.5004 17.9632 32.5694C18.0026 33.6384 18.3957 34.5626 19.1428 35.3419C18.7496 36.0013 18.5235 36.6557 18.4645 37.3051C18.4056 37.9545 18.4645 38.5339 18.6415 39.0435C18.8184 39.553 19.1477 40.1025 19.6294 40.692C20.111 41.2814 20.5828 41.781 21.0448 42.1906C21.5068 42.6002 22.1113 43.1047 22.8584 43.7042C22.2883 44.8631 21.1923 45.6924 19.5704 46.1919C17.9485 46.6915 16.2922 46.8063 14.6015 46.5366C12.9108 46.2668 11.6133 45.7124 10.709 44.8731C10.5714 44.4135 10.2814 43.5393 9.83905 42.2505C9.39672 40.9617 9.08217 40.0176 8.89541 39.4181C8.70864 38.8187 8.48256 37.9295 8.21716 36.7506C7.95176 35.5717 7.80432 34.5626 7.77483 33.7234C7.74534 32.8841 7.77975 31.9 7.87804 30.7711C7.97634 29.6421 8.19259 28.5381 8.5268 27.4591H4.92916C3.63165 27.4591 2.5209 26.9895 1.59691 26.0504C0.67293 25.1113 0.210938 23.9823 0.210938 22.6635V16.9088C0.210938 15.59 0.67293 14.461 1.59691 13.5219C2.5209 12.5828 3.63165 12.1132 4.92916 12.1132H19.0838C27.6356 12.1132 36.4429 8.27672 45.5058 0.60376C46.5281 0.60376 47.4128 0.983411 48.1598 1.74271C48.9069 2.50202 49.2804 3.40119 49.2804 4.44024V15.9497ZM45.5058 34.0531V5.4593C37.7601 11.4938 30.2109 14.9206 22.8584 15.7399V23.8324C30.2699 24.6717 37.8191 28.0785 45.5058 34.0531Z" fill="#2B3485"/>
</svg>
